<svg width="24" height="24" viewBox="0 0 24 24" fill="none" xmlns="http://www.w3.org/2000/svg">
  <path d="M2.6 9.7L8.8 3.5C9.36 2.94 10.26 2.94 10.82 3.5L17.3 9.98C17.86 10.54 17.86 11.44 17.3 12L11.08 18.22C10.52 18.78 9.62 18.78 9.06 18.22L2.6 11.76C2.04 11.2 2.04 10.3 2.6 9.74V9.7Z" fill="white"/>
  <path d="M13.2 3.5L19.4 9.7C19.96 10.26 19.96 11.16 19.4 11.72L12.94 18.18C12.38 18.74 11.48 18.74 10.92 18.18L4.7 11.96C4.14 11.4 4.14 10.5 4.7 9.94L11.18 3.5C11.74 2.94 12.64 2.94 13.2 3.5Z" fill="white"/>
</svg>
